<?xml version="1.0" standalone="no"?>
<!DOCTYPE svg PUBLIC "-//W3C//DTD SVG 20010904//EN"
 "http://www.w3.org/TR/2001/REC-SVG-20010904/DTD/svg10.dtd">
<svg version="1.0" xmlns="http://www.w3.org/2000/svg"
 width="780.000000pt" height="232.000000pt" viewBox="0 0 780.000000 232.000000"
 preserveAspectRatio="xMidYMid meet">

<g transform="translate(0.000000,232.000000) scale(0.100000,-0.100000)"
fill="#000000" stroke="none">
<path d="M1067 1908 l-48 -52 47 -47 c43 -44 49 -47 115 -53 117 -11 223 -53
325 -129 108 -82 199 -221 230 -354 19 -84 19 -231 -1 -306 -41 -158 -161
-318 -288 -383 -16 -9 -26 -18 -23 -21 11 -11 157 89 215 149 101 102 152 190
192 332 26 96 26 255 0 358 -77 301 -343 530 -643 553 l-73 5 -48 -52z"/>
<path d="M768 1799 c-126 -69 -242 -189 -308 -319 -112 -222 -96 -504 42 -717
118 -182 292 -294 511 -330 l98 -16 54 53 55 54 -46 47 c-43 44 -51 47 -113
54 -270 29 -490 217 -557 476 -20 77 -22 223 -5 299 7 30 31 93 53 138 46 98
148 209 238 260 71 41 53 41 -22 1z"/>
<path d="M2245 1321 c-77 -19 -116 -62 -123 -132 -9 -97 41 -148 168 -168 101
-17 141 -57 119 -121 -23 -66 -128 -83 -222 -36 -51 25 -52 25 -71 6 -25 -24
-13 -40 52 -72 64 -30 170 -32 227 -2 53 27 88 92 82 151 -9 84 -47 114 -174
138 -60 11 -83 20 -100 40 -31 36 -29 71 6 106 24 24 38 29 78 29 26 0 70 -8
96 -17 42 -15 49 -15 57 -3 18 28 10 41 -32 60 -52 22 -122 31 -163 21z"/>
<path d="M3937 1316 c-48 -18 -80 -47 -104 -95 -14 -29 -18 -62 -18 -166 0
-152 10 -189 65 -239 73 -65 182 -59 253 16 44 46 45 55 13 70 -22 9 -28 7
-51 -20 -42 -51 -124 -62 -169 -23 -38 33 -46 66 -46 191 0 168 25 210 124
210 43 0 53 -4 82 -35 35 -37 55 -43 73 -21 8 10 6 21 -12 46 -43 65 -135 94
-210 66z"/>
<path d="M5411 1320 c-47 -11 -81 -39 -105 -86 -18 -34 -21 -57 -21 -184 0
-128 3 -150 21 -185 55 -105 203 -125 289 -39 39 39 45 69 14 79 -15 5 -29 -2
-54 -28 -39 -40 -81 -51 -132 -34 -58 19 -77 61 -81 182 -7 169 25 235 113
235 53 0 78 -11 110 -47 16 -19 27 -24 43 -19 27 9 28 22 3 62 -32 52 -126 83
-200 64z"/>
<path d="M2585 1307 c-3 -7 -4 -127 -3 -267 l3 -255 163 -3 162 -2 0 30 0 30
-130 0 -130 0 0 90 0 89 113 3 112 3 3 28 3 27 -115 0 -116 0 0 90 0 90 130 0
130 0 0 30 0 30 -160 0 c-121 0 -162 -3 -165 -13z"/>
<path d="M3005 1308 c-3 -7 -4 -128 -3 -268 l3 -255 165 0 165 0 0 25 0 25
-132 3 -133 3 -2 237 -3 237 -28 3 c-16 2 -29 -2 -32 -10z"/>
<path d="M3410 1050 l0 -270 165 0 165 0 0 30 0 30 -135 0 -135 0 0 90 0 90
114 0 c108 0 115 1 121 21 4 12 3 25 -2 30 -4 4 -58 10 -118 11 l-110 3 0 85
0 85 133 3 132 3 0 29 0 30 -165 0 -165 0 0 -270z"/>
<path d="M4190 1290 l0 -30 80 0 80 0 2 -237 3 -238 27 -3 28 -3 2 238 3 238
80 5 c77 5 80 6 80 30 l0 25 -192 3 -193 2 0 -30z"/>
<path d="M4645 1308 c-3 -7 -4 -128 -3 -268 l3 -255 30 0 30 0 3 113 3 112 63
0 63 0 56 -115 c53 -109 58 -115 87 -115 16 0 30 5 30 10 0 6 -25 60 -55 120
l-55 110 30 15 c96 50 93 215 -5 265 -42 21 -273 28 -280 8z m240 -62 c37 -16
55 -42 55 -81 0 -65 -50 -95 -160 -95 l-70 0 0 95 0 95 70 0 c39 0 86 -6 105
-14z"/>
<path d="M5115 1307 c-3 -7 -4 -127 -3 -267 l3 -255 24 -3 c13 -2 28 2 32 10
10 15 12 488 3 512 -7 19 -53 21 -59 3z"/>
<path d="M1114 1250 c-57 -5 -66 -9 -113 -53 -61 -57 -97 -74 -187 -86 -89
-13 -104 -28 -104 -106 0 -75 16 -95 78 -95 36 0 44 -4 56 -29 16 -31 34 -41
71 -41 37 0 55 10 71 41 l15 29 139 0 c110 0 140 -3 140 -13 0 -8 11 -24 24
-36 36 -34 94 -26 121 16 14 23 28 32 48 33 48 0 67 31 67 109 0 78 -23 121
-66 121 -32 0 -30 10 11 50 32 31 45 60 28 60 -4 0 -28 -21 -54 -46 l-46 -46
-22 31 c-12 17 -32 37 -44 43 -27 15 -151 25 -233 18z m-156 -298 c34 -44 -13
-107 -64 -84 -30 14 -38 33 -30 67 11 43 65 52 94 17z m429 13 c30 -21 34 -51
11 -80 -24 -30 -47 -32 -76 -5 -29 28 -28 54 4 79 32 25 34 25 61 6z"/>
</g>
</svg>
